# xmcd CD database file
# Copyright (C) 1993-1997  Ti Kan
#
# Track frame offsets:
#	150
#	10272
#	19940
#	32610
#	42150
#	53062
#	68307
#	82517
#	96147
#	109287
#	118892
#	130290
#	142182
#	151945
#	165837
#	178332
#
# Disc length: 2549 seconds
#
# Revision: 1
# Processed by: cddbd v1.4b41PL1 Copyright (c) Steve Scherf et al.
# Submitted via: xmcd 2.1 PL2
#
DISCID=c609f310
DTITLE=Carl Perkins - Blue Suede Shoes
DYEAR=1900
DGENRE=
TTITLE0=Blue Suede Shoes
TTITLE1=Matchbox
TTITLE2=Boppin' The Blues
TTITLE3=All Mama's Children
TTITLE4=Dixie Fried
TTITLE5=The Hurt Put On By You
TTITLE6=Georgia Court Room
TTITLE7=Every Road
TTITLE8=Hallelujah Special
TTITLE9=This Old House
TTITLE10=Sing A Song
TTITLE11=Gone, Gone, Gone
TTITLE12=Movie Magg
TTITLE13=Tennessee
TTITLE14=Your True Love
TTITLE15=That's Right
EXTD=
EXTT0=
EXTT1=
EXTT2=
EXTT3=
EXTT4=
EXTT5=
EXTT6=
EXTT7=
EXTT8=
EXTT9=
EXTT10=
EXTT11=
EXTT12=
EXTT13=
EXTT14=
EXTT15=
PLAYORDER=
